<svg width="700" height="400" xmlns="http://www.w3.org/2000/svg"><rect x="0" y="0" width="700" height="400" fill="white" stroke="black" stroke-width="2" /><text x="300" y="50" text-anchor="middle" font-size="23"> BBC Home Page Analysis </text><rect x="180" y="80" width="30" height="15" fill="blue" /><text x="160" y="87" text-anchor="end" font-size="13"> health </text><text x="230" y="87" font-size="13"> 10 %</text><rect x="180" y="105" width="30" height="15" fill="blue" /><text x="160" y="112" text-anchor="end" font-size="13"> culture </text><text x="230" y="112" font-size="13"> 10 %</text><rect x="180" y="130" width="60" height="15" fill="blue" /><text x="160" y="137" text-anchor="end" font-size="13"> science </text><text x="260" y="137" font-size="13"> 20 %</text><rect x="180" y="155" width="60" height="15" fill="blue" /><text x="160" y="162" text-anchor="end" font-size="13"> travel </text><text x="260" y="162" font-size="13"> 20 %</text><rect x="180" y="180" width="60" height="15" fill="blue" /><text x="160" y="187" text-anchor="end" font-size="13"> future </text><text x="260" y="187" font-size="13"> 20 %</text><rect x="180" y="205" width="60" height="15" fill="blue" /><text x="160" y="212" text-anchor="end" font-size="13"> business </text><text x="260" y="212" font-size="13"> 20 %</text><rect x="180" y="230" width="90" height="15" fill="blue" /><text x="160" y="237" text-anchor="end" font-size="13"> sport </text><text x="290" y="237" font-size="13"> 30 %</text><rect x="180" y="255" width="120" height="15" fill="blue" /><text x="160" y="262" text-anchor="end" font-size="13"> entertainment </text><text x="320" y="262" font-size="13"> 40 %</text><rect x="180" y="280" width="150" height="15" fill="blue" /><text x="160" y="287" text-anchor="end" font-size="13"> asia </text><text x="350" y="287" font-size="13"> 50 %</text><rect x="180" y="305" width="360" height="15" fill="blue" /><text x="160" y="312" text-anchor="end" font-size="13"> other </text><text x="560" y="312" font-size="13"> 120 %</text></svg>