<svg width="700" height="400" xmlns="http://www.w3.org/2000/svg"><rect x="0" y="0" width="700" height="400" fill="white" stroke="black" stroke-width="2" /><text x="300" y="50" text-anchor="middle" font-size="23"> BBC Home Page Analysis </text><rect x="180" y="80" width="29.411764" height="15" fill="blue" /><text x="160" y="87" text-anchor="end" font-size="13"> UK </text><text x="229.41176" y="87" font-size="13"> 3 %</text><text x="300" text-anchor="middle" y="350" font-size="16"> Total : 34</text><rect x="180" y="105" width="58.82353" height="15" fill="blue" /><text x="160" y="112" text-anchor="end" font-size="13"> Health </text><text x="258.82352" y="112" font-size="13"> 6 %</text><text x="300" text-anchor="middle" y="350" font-size="16"> Total : 34</text><rect x="180" y="130" width="58.82353" height="15" fill="blue" /><text x="160" y="137" text-anchor="end" font-size="13"> Business </text><text x="258.82352" y="137" font-size="13"> 6 %</text><text x="300" text-anchor="middle" y="350" font-size="16"> Total : 34</text><rect x="180" y="155" width="88.23529" height="15" fill="blue" /><text x="160" y="162" text-anchor="end" font-size="13"> Sport </text><text x="288.2353" y="162" font-size="13"> 9 %</text><text x="300" text-anchor="middle" y="350" font-size="16"> Total : 34</text><rect x="180" y="180" width="88.23529" height="15" fill="blue" /><text x="160" y="187" text-anchor="end" font-size="13"> Technology and Science </text><text x="288.2353" y="187" font-size="13"> 9 %</text><text x="300" text-anchor="middle" y="350" font-size="16"> Total : 34</text><rect x="180" y="205" width="88.23529" height="15" fill="blue" /><text x="160" y="212" text-anchor="end" font-size="13"> Entertainments and Arts </text><text x="288.2353" y="212" font-size="13"> 9 %</text><text x="300" text-anchor="middle" y="350" font-size="16"> Total : 34</text><rect x="180" y="230" width="117.64706" height="15" fill="blue" /><text x="160" y="237" text-anchor="end" font-size="13"> Asia </text><text x="317.64706" y="237" font-size="13"> 12 %</text><text x="300" text-anchor="middle" y="350" font-size="16"> Total : 34</text><rect x="180" y="255" width="176.47058" height="15" fill="blue" /><text x="160" y="262" text-anchor="end" font-size="13"> Other </text><text x="376.47058" y="262" font-size="13"> 18 %</text><text x="300" text-anchor="middle" y="350" font-size="16"> Total : 34</text><rect x="180" y="280" width="294.11768" height="15" fill="blue" /><text x="160" y="287" text-anchor="end" font-size="13"> World </text><text x="494.11768" y="287" font-size="13"> 29 %</text><text x="300" text-anchor="middle" y="350" font-size="16"> Total : 34</text></svg>