<svg width="700" height="400" xmlns="http://www.w3.org/2000/svg"><rect x="0" y="0" width="700" height="400" fill="white" stroke="black" stroke-width="2" /><text x="300" y="50" text-anchor="middle" font-size="23"> BBC Home Page Analysis </text><rect x="180" y="80" width="0" height="15" fill="blue" /><text x="160" y="87" text-anchor="end" font-size="13"> Business </text><text x="200" y="87" font-size="13"> 0 %</text><text x="300" text-anchor="middle" y="350" font-size="16"> Total : 37</text><rect x="180" y="105" width="27.027027" height="15" fill="blue" /><text x="160" y="112" text-anchor="end" font-size="13"> Health </text><text x="227.02702" y="112" font-size="13"> 3 %</text><text x="300" text-anchor="middle" y="350" font-size="16"> Total : 37</text><rect x="180" y="130" width="54.054054" height="15" fill="blue" /><text x="160" y="137" text-anchor="end" font-size="13"> Entertainments and Arts </text><text x="254.05405" y="137" font-size="13"> 5 %</text><text x="300" text-anchor="middle" y="350" font-size="16"> Total : 37</text><rect x="180" y="155" width="81.08108" height="15" fill="blue" /><text x="160" y="162" text-anchor="end" font-size="13"> Sport </text><text x="281.0811" y="162" font-size="13"> 8 %</text><text x="300" text-anchor="middle" y="350" font-size="16"> Total : 37</text><rect x="180" y="180" width="81.08108" height="15" fill="blue" /><text x="160" y="187" text-anchor="end" font-size="13"> UK </text><text x="281.0811" y="187" font-size="13"> 8 %</text><text x="300" text-anchor="middle" y="350" font-size="16"> Total : 37</text><rect x="180" y="205" width="81.08108" height="15" fill="blue" /><text x="160" y="212" text-anchor="end" font-size="13"> Technology and Science </text><text x="281.0811" y="212" font-size="13"> 8 %</text><text x="300" text-anchor="middle" y="350" font-size="16"> Total : 37</text><rect x="180" y="230" width="135.13513" height="15" fill="blue" /><text x="160" y="237" text-anchor="end" font-size="13"> Asia </text><text x="335.13513" y="237" font-size="13"> 14 %</text><text x="300" text-anchor="middle" y="350" font-size="16"> Total : 37</text><rect x="180" y="255" width="216.21622" height="15" fill="blue" /><text x="160" y="262" text-anchor="end" font-size="13"> World </text><text x="416.21622" y="262" font-size="13"> 22 %</text><text x="300" text-anchor="middle" y="350" font-size="16"> Total : 37</text><rect x="180" y="280" width="324.3243" height="15" fill="blue" /><text x="160" y="287" text-anchor="end" font-size="13"> Other </text><text x="524.32434" y="287" font-size="13"> 32 %</text><text x="300" text-anchor="middle" y="350" font-size="16"> Total : 37</text></svg>